<?xml version="1.0" encoding="utf-8"?>
<!-- Generator: Adobe Illustrator 26.0.2, SVG Export Plug-In . SVG Version: 6.00 Build 0)  -->
<svg version="1.1" id="Calque_1" xmlns="http://www.w3.org/2000/svg" xmlns:xlink="http://www.w3.org/1999/xlink" x="0px" y="0px"
	 viewBox="0 0 850 350" style="enable-background:new 0 0 850 350;" xml:space="preserve">
<style type="text/css">
	.st0{fill:#FFFFFF;}
</style>
<g>
	<path class="st0" d="M834.6,64.4c1.2,0,2.3,0,2.3-1.5c0-1.2-0.9-1.4-2-1.4h-2v2.8H834.6z M832.9,69.8h-1.3v-9.4h3.5
		c2.3,0,3.5,0.8,3.5,2.7c0,1.6-1.2,2.4-2.5,2.5l2.7,4.2H837l-2.4-4.2h-1.7V69.8z M834.6,72c3.8,0,6.7-2.9,6.7-7
		c0-3.8-2.9-6.7-6.7-6.7c-3.7,0-6.6,3-6.6,6.7C828,69,830.8,72,834.6,72 M826.3,65c0-4.6,3.9-8.1,8.3-8.1c4.6,0,8.3,3.5,8.3,8.1
		c0,4.8-3.8,8.3-8.3,8.3C830.2,73.3,826.3,69.8,826.3,65"/>
	<path class="st0" d="M223.8,39.4C180-3.9,103.5-3.6,59.6,39.8L40,59.3C-3.9,102.6-3.9,178.6,40,222l19.4,19.2
		c43.8,43.4,117.9,46.4,161.7,3c0,0,22.2-22,22.4-22.2c1.1-1.2,1-2.5-0.6-3.9c0-0.1-12.4-11.1-12.5-11.2c-5.4-5.4-14.7-4.9-21,1.1
		c-0.1,0.1-11.6,11.6-11.6,11.6c-32.3,31.8-82.4,29.3-114.5-2.5l-18.5-18.4c-32.1-31.8-32-84,0.1-116l18.5-18.4
		c32.3-31.8,84.3-31.7,116.4,0.1l12,11.9c4.9,4.9,12.6,5.1,16.4,1.2c0.1-0.1,14.8-13.6,15-13.7c1.5-1.4,1.8-3,0.2-4.5
		C243.4,59.3,223.8,39.4,223.8,39.4"/>
	<path class="st0" d="M120.4,108.3c12.8-12.8,29-12.8,41.5-0.4l8,7.9c4.3,4.2,13.4,6.6,20.2,0.2l11.6-11.5c1.5-1.9,0.6-2.9-0.3-4
		l-16.3-16.2c-13-12.6-28-19.2-43.5-19.2c-15.7-0.1-30.7,6.7-43.4,19.2L84.9,97.6c-12.8,13-19.6,28-19.6,43.3
		c0,15.2,6.9,30,19.6,42.8l13.3,13c26.1,25.7,60.3,25.7,86.9,0c0.3-0.3,15.2-14.9,15.2-14.9c1.8-2.1,1.7-3.3-0.2-5.3l-56.5-56
		c-1.2-1.2-2.4-1.2-3.5-0.2l-14.1,13.8c-4.6,4.6-4.6,12.2,0,16.8c0,0,17.4,17.4,25.1,24.9c0,0,1.2,1.2,1.4,1.9
		c0.1,0.8-0.1,1.3-0.3,1.7c-0.8,0.7-1.8,1.3-2.5,1.6c-1.6,0.5-3.5,0.9-6.4,1.2c-5.8,0.7-14.6-1.2-20.5-7.1L108.3,161
		c-12.5-12.3-12.3-28.5,0.3-41.1L120.4,108.3z"/>
	<path class="st0" d="M311.6,68.5c-9.7-0.4-36,16.7-50.3,39.8c-14.1,23.1-15.7,39.6-14.1,47.8c1.5,8.2,10.1,23.8,28.8,21.2
		c20.4-2.7,32-15.7,37.7-23.7c5.8-7.9,8.6-11.3,2.8-15.8c-5.9-4.6-12.9-2.7-18.3,4.3c-5.5,7-20.7,22.7-28.4,14.3
		c-7.5-8.5,4.8-30.7,8.6-35.9c3.6-5.3,19.8-31.4,32.5-31.6c4.6-0.1,0,9.1-1.9,14.5c-1.8,5.5-0.3,14,6.7,14.4
		c7,0.3,16.1-1.9,13.6-30.9C327.7,67,311.6,68.5,311.6,68.5"/>
	<path class="st0" d="M361.5,66.1c1-1.5,3.6-4,10.5-1.2c7.1,2.7,6.3,8.5,4.8,13.3c-1.6,5-19.8,43.5-23.1,52.7
		c-3.4,9.1-6.5,16.7-4.6,19.5c1.8,2.7,8.9-5.8,10.9-8.5c2.1-2.8,5.2-6.7,6.7-7.9c1.5-1.2,1.2-0.9,3.4-4.6
		c2.1-3.6,9.3-15.4,17.9-23.5c4.2-3.8,11.8-9.3,25.4-5.8c9.3,2.5,18,23-4,39.6c-10,7.4-20.4,4.2-22.2,5.2c-0.9,0.5-0.8,1.9-0.9,4.2
		c-0.3,5.1,1.4,7,5.5,8.5c7.5,2.8,18.7-12.8,20.8-12.2c3.1,0.7,2.7,5.2,0.3,11.7c-3.9,11.3-13.6,17.9-26.9,17.9
		c-14.1,0-20.4-15.8-20.4-15.8s-4.6,2.8-6.5,4.3c-0.8,0.7-2.7,3.5-4.6,5c-3.9,3.2-10.6,9-18.8,4.4c-2-1.1-11.8-5.4-8.2-24.2
		c4-21.1,28.6-69.5,30.5-72.2C358,76.4,356.5,73.3,361.5,66.1 M402,129.9c4.2-2.2,8.2-10.3,8.2-12.1c0-1.9-3.1-2-4.3-2
		c-1.2,0-3.4,1.1-7.3,5.7c-5.4,6.2-5.8,8.9-4.3,10C394.4,131.4,396.9,132.4,402,129.9"/>
	<path class="st0" d="M531,125.7c4.3-4,7-10.2,4.8-12c-2.7-2.1-7.4,1.6-10.7,5c-3,3-7,9.4-6.1,10.6C519.1,129.3,522.8,133,531,125.7
		 M442.5,99.8c1.5-1.8,6.8-4.5,10.3-2.2c3.5,2.4,7.8,4,6.7,10.4c-1.1,5.2-7.2,14.1-10.6,24.5c-3.3,10.4-2.7,15,0.4,17.2
		c2.2,1.5,5.9-2.4,8.3-5.5c2.4-3,10.1-16.4,10.6-20.3c0.7-4,0.7-5.8,1.2-10.3c0.7-4.6,2.8-16.1,12.5-15.2c10.5,0.9,7,18.3,5.8,20.4
		c-1.4,2-2.6,6.5-0.1,7.8c1.9,0.9,7.7-0.8,10.1-2.7c1.2-0.9,3.8-5.1,7.7-10.1c4.3-5.4,9.3-10.4,12.6-12.6c7.9-5.4,21.2-7.8,27.3,0.8
		c10.4,15-4.2,33.4-12.2,37.1c-8.5,3.9-16.4,3.1-18.3,3.9c-1.8,0.9-2.4,4.3-2,7.1c0.3,2.7,2.7,7,8.2,6.3c6.7-0.7,15.7-11.8,17-12.4
		c1.7-0.8,4.6,0.5,0.3,13.4c-2.3,6.9-10.5,12.9-17.9,14.5c-7.3,1.5-19.1,0.3-23.9-8.6c-5.4-9.4-3.1-20.7-4.3-21.5
		c-1.2-0.9-3.4-0.4-4.6-0.7c-1.2-0.3-5.5-0.3-8.2,1.5c-2.8,1.9-7.5,10.2-14.1,18.4c-4,5-9.7,11.8-19.1,12.6
		c-9.9,0.9-14.8-4.7-16.4-9.1c-2-5.1-1.9-17.9,0-29.2c1.7-11.3,9.1-25.2,10.3-28.6C440.1,106.8,441,101.6,442.5,99.8"/>
	<path class="st0" d="M621.1,117.9c-3.6,4.6-9.8,14.6-12.5,20.9c-2.1,5.1-2.1,15.9,1.7,15.9c4,0,11.3-5.4,17.1-18.4
		c5.8-13.2,8.7-20.6,6.4-22.1C630.2,111.5,624,113.9,621.1,117.9 M765.4,117.6c-4.3,4.8-10.9,17.5-12.4,23c-2.4,8-0.5,12.8,4.3,12.1
		c4.9-0.5,11.5-8.2,17.3-20c5.9-12.4,5.9-17.9,3.1-19.3C775.1,111.7,769,113.4,765.4,117.6 M583.6,65.2c1.2-1.5,4.6-3.8,9-2.6
		c4.6,1.3,8.3,6.7,8.1,12.2c-0.1,3.4-13.7,28.8-18.8,39.5c-5.2,10.6-14.8,34-9.5,37.2c3.2,1.9,15.9-16.5,20.4-23
		c4.6-6.3,22.5-33.3,34.5-32.2c12.6,1.2,12.8,7.1,16.1,11c3.4,4,10.1,4.3,11,9.4c0.8,5.2-2,5.2-7.8,19.2c-1.2,2.8-5.2,9.8-0.3,12.9
		c4.8,2.9,20.3-19.3,20.3-19.3s9-31.8,16.8-31.8c15,0.1,9.9,12.9,12.1,14c4.2,2.4,13.7-18,26.7-14.1c5.1,1.6,8.9,12.1,3.9,22.7
		c-12.4,25.9-12.5,31.9-7.3,31.2c3.1-0.3,11.3-10.6,19.9-25.5c7.4-13.2,16.9-29.4,34.9-30.4c7.5-0.4,13.2,4.8,13.2,4.8
		s5.5-11.4,9.1-18.1c3.8-6.7,9.7-20.4,14-21.5c2.4-0.7,10.3,2.9,11.1,8.3c0.9,7-14.6,34-18.3,43.1c-3.6,9.1-16.9,36.2-11.3,37.4
		c10.9,2.5,17.3-21.9,20.8-19.8c7.4,4.7,3.5,11.8-4.2,23.8c-7.3,11.4-15.6,17.6-23.5,18.8c-10.2,1.6-11.3-12.6-14.6-12.5
		c-4.1,0.4-8.7,14.9-21.9,12.9c-11.8-1.9-10.3-11.4-16.8-12.9c-6.1-1.2-5.9,13.7-24.5,13.2c-10.1-0.4-11.9-10.3-12.1-17.3
		c-0.1-11.1,11.7-29.2,8.6-31c-4.8-3.1-17.4,10.9-22,22c-4.7,11.4-4.7,22.2-5.5,23.5c-0.4,0.9-1.9,4.6-8.5,4
		c-5.9-0.7-7.3-3.8-8.5-5.9c-1.2-2-1.6-3.9-4.2-3.2c-3.6,0.9-8.7,8.7-18.4,8.1c-7.9-0.7-10.2-12.9-12.4-11.7
		c-2.2,1.2-8.9,10.3-20,11.8c-11.3,1.5-14.9-11.6-17.1-11.8c-4.1-0.7-7.5,4.6-11.8,8.2c-4.6,3.9-7.7,5.2-14.4,3.9
		c-2.8-0.5-7-3.1-9.2-11.8c-2-8.9,4-30.1,6.4-38c2.4-7.9,22.9-50.3,23.7-52.9C581.7,70.9,582.2,66.8,583.6,65.2"/>
	<path class="st0" d="M455.9,199.6l-5.5,4.4l-3.1-1.8c-3.8-1.6-6.2-3.2-14.8-3.2c-13.2,0-19,5.9-19,11.7c0,4.8,5.5,11.8,20.4,11.8
		c6.9,0,11.8-1.7,13.4-2.5v-4.3h-12.2h-5.8v-6h5.8h22.4v3.6v5.9v3.7c-3,2-12.1,5.6-23.7,5.6c-19.9,0-30.6-9.1-30.6-17.9
		c0-8.7,9-16.7,29.2-17.7C432.6,193,446.4,192.6,455.9,199.6"/>
	<path class="st0" d="M514.3,199c-11.3,0-18.1,4.5-18.1,11.7c0,7.4,6.8,11.8,18.1,11.8c11.4,0,18.1-4.4,18.1-11.8
		C532.4,203.5,525.7,199,514.3,199 M514.3,228.6c-19.5,0-28.4-9.3-28.4-17.9c0-8.5,8.9-17.7,28.4-17.7c19.5,0,28.4,9.3,28.4,17.7
		C542.6,219.4,533.7,228.6,514.3,228.6"/>
	<polygon class="st0" points="611.1,222.2 616.8,222.2 616.8,228.2 611.1,228.2 574.6,228.2 574.6,224.5 574.6,197.2 574.6,193.4 
		584.5,193.4 584.5,222 	"/>
	<polygon class="st0" points="688.9,193.4 647.6,193.4 647.6,228.2 657.5,228.2 657.5,224.5 657.5,213.4 679.4,213.4 679.4,207.4 
		657.5,207.4 657.5,199.5 688.9,199.5 	"/>
	<path class="st0" d="M248.7,235.4c0-2.7,2-4.8,4.7-4.8c2.6,0,4.6,2,4.6,4.8c0,2.8-2,4.8-4.6,4.8
		C250.8,240.2,248.7,238.2,248.7,235.4 M253.4,241.1c3.1,0,5.8-2.4,5.8-5.7c0-3.3-2.7-5.7-5.8-5.7c-3.1,0-5.8,2.4-5.8,5.7
		C247.6,238.7,250.3,241.1,253.4,241.1 M252.2,235.9h1.2l1.8,2.8h1.1l-1.9-2.9c1-0.1,1.7-0.6,1.7-1.8c0-1.3-0.8-1.9-2.3-1.9h-2.5
		v6.6h1V235.9z M252.2,235V233h1.4c0.7,0,1.4,0.2,1.4,1c0,1-0.8,1.1-1.6,1.1H252.2z"/>
</g>
<g>
	<path class="st0" d="M323.4,342.3l10.2-46.2h30.6l-1.7,7.4h-21.8l-2.4,11h15.8l-1.7,7.4h-15.8l-2.8,12.9h22.5l-1.7,7.4H323.4z"/>
	<path class="st0" d="M399.4,296.1h8.8l-6.4,28.9c-3,13.5-12.3,17.9-21.7,17.9c-9.4,0-16.8-4.4-13.8-17.9l6.4-28.9h8.8l-6.5,29.3
		c-1.7,7.5,0.6,10.1,6.6,10.1s9.5-2.6,11.2-10.1L399.4,296.1z"/>
	<path class="st0" d="M408.3,342.3l10.2-46.2H437c10.5,0,13.4,6.1,11.8,13.7c-1.2,5.7-5.1,10.3-11.1,11.9l5.6,20.6h-9.8l-4.5-18.8
		h-7.6l-4.2,18.8H408.3z M422.9,316.3h6.5c6.9,0,9.5-2.2,10.5-6.5s-1.2-6.5-6.1-6.5h-8.1L422.9,316.3z"/>
	<path class="st0" d="M467.2,342.9c-12.6,0-17.5-8.6-14.1-23.7c3.3-15.1,12-23.7,24.6-23.7c12.6,0,17.5,8.6,14.1,23.7
		C488.5,334.3,479.8,342.9,467.2,342.9z M476.1,302.9c-7.2,0-11.8,5.5-14.2,16.3c-2.5,10.8-0.4,16.3,6.9,16.3
		c7.2,0,11.8-5.5,14.2-16.3S483.3,302.9,476.1,302.9z"/>
	<path class="st0" d="M493.1,342.3l10.2-46.2h16.9c10,0,15.4,4.2,13.2,13.8c-2.1,9.6-9.3,13.8-19.3,13.8h-8.1l-4.2,18.7H493.1z
		 M507.7,316.4h7c6.7,0,9-2.5,9.9-6.6c1-4.1-0.4-6.6-7-6.6h-7L507.7,316.4z"/>
	<path class="st0" d="M533.2,342.3l10.2-46.2H574l-1.7,7.4h-21.8l-2.4,11H564l-1.7,7.4h-15.8l-2.8,12.9h22.5l-1.7,7.4H533.2z"/>
	<path class="st0" d="M630.9,321c-2.4,3.9-4.9,7.8-8.2,11.3c1.6,1.8,3.6,3.1,5.8,3.1l-1.6,7.4c-4.4,0-6.1-0.6-10.4-4.9
		c-3.9,3.3-8.3,4.9-12.8,4.9c-8.6,0-13.9-4.2-11.8-13.4c1.3-5.7,5.2-9.2,10.4-12.2c-1.7-3.7-2.4-6.6-1.4-11.1
		c1.5-6.5,7.3-10.8,14.1-10.8c6.1,0,10,4.5,8.8,10.3c-1.3,6-6.7,9.5-11.8,12.9c1.7,3.4,3.8,6.6,6.1,9.2c2.4-2.7,4.5-5.6,6.3-8.7
		L630.9,321z M605.6,335.5c2.2,0,4.7-0.9,6.7-2.6c-3.1-2.9-5.3-6.2-7-9.9c-2.6,1.8-4.4,3.1-5.1,6.1
		C599.5,332.5,602,335.5,605.6,335.5z M609.1,313.1c3.1-2,6.5-4.7,7.2-7.7c0.6-2.6-0.3-4.7-2.9-4.7c-1.8,0-4.3,1.8-5,4.9
		C607.8,308.3,608.1,310.9,609.1,313.1z"/>
	<path class="st0" d="M690.9,296.1h8.8l-6.4,28.9c-3,13.5-12.3,17.9-21.7,17.9s-16.8-4.4-13.8-17.9l6.4-28.9h8.8l-6.5,29.3
		c-1.7,7.5,0.6,10.1,6.6,10.1s9.5-2.6,11.2-10.1L690.9,296.1z"/>
	<path class="st0" d="M699.9,342.3l10.2-46.2h8.8l-4.5,20.5l20-20.5h10.2l-17,17.3l8.8,28.9h-9.8l-6.6-22l-8.3,8.1l-3.1,13.9H699.9z
		"/>
</g>
</svg>
